<?xml version="1.0" encoding="UTF-8"?>
<svg version="1.1" xmlns="http://www.w3.org/2000/svg" width="458" height="165">
<path d="M0 0 C-0.55815559 3.58045896 -1.42877421 6.08800148 -3.40625 9.1171875 C-4.14294922 10.26501709 -4.14294922 10.26501709 -4.89453125 11.43603516 C-5.98370055 13.09065823 -7.07491514 14.74393644 -8.16796875 16.39599609 C-10.76557622 20.3597695 -13.19041574 24.19913766 -15.09375 28.546875 C-17.00902019 32.75752661 -18.5848649 35.78656415 -22 39 C-28.45046609 41.00186879 -35.34497917 40.57481723 -42 40 C-40.25539438 42.72725128 -38.51063453 45.45440362 -36.765625 48.18139648 C-35.29485392 50.47992851 -33.82489429 52.77897673 -32.35546875 55.07836914 C-29.23126721 59.96534401 -26.10651248 64.85145469 -22.93359375 69.70703125 C-22.51198975 70.35397949 -22.09038574 71.00092773 -21.65600586 71.66748047 C-20.5761477 73.32090637 -19.49138292 74.97112484 -18.40625 76.62109375 C-17 79 -17 79 -17 81 C-21.3924631 81.07482575 -25.78457672 81.12891683 -30.17749023 81.16479492 C-31.66811598 81.17977042 -33.15869851 81.20015819 -34.64916992 81.22631836 C-46.20894662 81.4239545 -55.48252987 81.1854101 -64.2734375 72.90234375 C-70.23026606 66.33905074 -71.37167806 59.7174291 -71.27734375 51.1015625 C-70.60372487 43.5684162 -66.65391637 36.95844602 -61 32 C-56.02726875 28.89558144 -51.2251204 26.85180985 -45.3125 26.9375 C-44.10013672 26.95103516 -44.10013672 26.95103516 -42.86328125 26.96484375 C-42.24839844 26.97644531 -41.63351563 26.98804687 -41 27 C-40.938125 26.030625 -40.87625 25.06125 -40.8125 24.0625 C-39.58314696 15.93237859 -34.70733853 9.85581948 -28.5078125 4.73046875 C-21.06761802 -0.40349722 -8.63637145 -4.31818573 0 0 Z " fill="#00D6F2" transform="translate(88,38)"/>
<path d="M0 0 C0.66 0 1.32 0 2 0 C2.50615298 1.26839526 3.00469099 2.53983102 3.5 3.8125 C3.7784375 4.52019531 4.056875 5.22789063 4.34375 5.95703125 C5 8 5 8 5 11 C6.01707031 10.91298828 6.01707031 10.91298828 7.0546875 10.82421875 C15.96650398 10.39220549 22.07769665 12.6745689 28.875 18.4375 C36.23699814 27.31520364 36.85260628 34.75033383 36 46 C33.76749371 54.03216937 27.78692221 58.71551007 20.96484375 62.984375 C13.47500583 66.8558618 2.99852966 67.25592227 -5.14941406 66.02197266 C-13.57263026 63.00213855 -17.49829188 52.59804117 -21.32568359 45.1484375 C-23.90842035 40.29177766 -26.96393479 35.76869354 -30 31.1875 C-31.01022262 29.64597396 -32.01128257 28.09837549 -33 26.54296875 C-33.4125 25.90383545 -33.825 25.26470215 -34.25 24.60620117 C-34.4975 24.07615479 -34.745 23.5461084 -35 23 C-34.67 22.34 -34.34 21.68 -34 21 C-33.43192627 21.07444336 -32.86385254 21.14888672 -32.27856445 21.22558594 C-25.78840726 21.92098335 -19.17362387 22.41905723 -13 20 C-7.53830477 15.09472093 -4.23669301 8.35926544 -1.0871582 1.82006836 C-0.728396 1.2194458 -0.36963379 0.61882324 0 0 Z " fill="#00D8F3" transform="translate(107,54)"/>
<path d="M0 0 C3.93119465 3.38265586 6.39206037 5.86599431 7.03515625 11.19140625 C7.19570033 16.88025068 7.09875368 20.58490372 3.6875 25.3125 C-0.4459215 29.57509092 -4.19367073 31.45316674 -10.125 31.5625 C-15.29877098 31.48729984 -18.96122843 30.65099292 -22.75 26.8828125 C-26.97141412 22.06176569 -27.72364932 18.15730506 -27.66015625 11.953125 C-26.9448437 6.51996452 -24.06829216 2.67323893 -19.8125 -0.625 C-13.11883046 -3.46980955 -6.49654624 -3.30956129 0 0 Z M-19.3125 9.3125 C-20.86274464 12.41298928 -20.60242015 14.89144218 -20.3125 18.3125 C-18.25759114 22.01133596 -16.79174155 23.1120899 -12.875 24.75 C-9.01399562 25.35963227 -7.59645799 25.35387929 -4.3125 23.3125 C-1.2876268 20.53288679 -0.0248084 18.3582904 0.25 14.3125 C0.09105894 10.80917417 -0.34215559 10.27676121 -2.75 7.375 C-3.595625 6.694375 -4.44125 6.01375 -5.3125 5.3125 C-5.6425 4.9825 -5.9725 4.6525 -6.3125 4.3125 C-12.70178772 3.56081909 -14.97021953 4.97021953 -19.3125 9.3125 Z " fill="#00BCD4" transform="translate(241.3125,46.6875)"/>
<path d="M0 0 C2.660625 -0.0825 5.32125 -0.165 8.0625 -0.25 C8.8862915 -0.28641602 9.71008301 -0.32283203 10.55883789 -0.36035156 C16.20366924 -0.44416896 19.35372806 0.78515527 24 4 C27.68632884 7.78085009 28.3036138 10.88128869 28.5 16 C28.31000458 21.11720994 27.62833663 24.18069828 24 28 C16.21430366 34.12916521 10.29294652 33 0 33 C0 22.11 0 11.22 0 0 Z M7 6 C7 12.6 7 19.2 7 26 C13.72231843 26.58268663 13.72231843 26.58268663 18.4375 23.875 C21.30829846 20.65410417 22.08745867 19.2854747 22 15 C20.69469965 11.08409896 19.63514713 9.42343142 16.1875 7.125 C12.62037705 5.66717988 12.62037705 5.66717988 7 6 Z " fill="#00BFD7" transform="translate(287,45)"/>
<path d="M0 0 C2.31 0 4.62 0 7 0 C7.33 3.96 7.66 7.92 8 12 C8.62648437 11.30132812 9.25296875 10.60265625 9.8984375 9.8828125 C10.71570313 8.97273438 11.53296875 8.06265625 12.375 7.125 C13.18710938 6.22007813 13.99921875 5.31515625 14.8359375 4.3828125 C18.7979716 0.02028398 18.7979716 0.02028398 20.9453125 -0.1953125 C22.96354167 -0.13020833 24.98177083 -0.06510417 27 0 C25.65515286 4.04161955 23.9494838 6.38678154 20.875 9.3125 C20.15054688 10.00988281 19.42609375 10.70726562 18.6796875 11.42578125 C18.12539062 11.94527344 17.57109375 12.46476562 17 13 C19.84114431 18.22770554 23.07222637 22.98007097 26.609375 27.765625 C28 30 28 30 28 33 C23.06735751 34.05699482 23.06735751 34.05699482 20 33 C16.80106338 29.30393133 14.38228636 25.25770328 12 21 C9.95310804 21.62628423 9.95310804 21.62628423 8 23 C7.29823412 25.41679707 7.29823412 25.41679707 7.25 28.125 C7.19328125 29.03507812 7.1365625 29.94515625 7.078125 30.8828125 C7.05234375 31.58148438 7.0265625 32.28015625 7 33 C5.00045254 33.04254356 2.99958364 33.04080783 1 33 C0 32 0 32 -0.11352539 28.94897461 C-0.11336634 27.60008729 -0.10767612 26.25119386 -0.09765625 24.90234375 C-0.0962413 24.19348526 -0.09482635 23.48462677 -0.09336853 22.75428772 C-0.08775443 20.48198288 -0.07519963 18.20977525 -0.0625 15.9375 C-0.05748681 14.40039204 -0.05292359 12.86328255 -0.04882812 11.32617188 C-0.03778042 7.55074358 -0.02050641 3.77538829 0 0 Z " fill="#00BDD5" transform="translate(162,45)"/>
<path d="M0 0 C2.31 0 4.62 0 7 0 C7.01981934 0.65073486 7.03963867 1.30146973 7.06005859 1.97192383 C7.15529299 4.91919151 7.26497818 7.86574885 7.375 10.8125 C7.4059375 11.83666016 7.436875 12.86082031 7.46875 13.91601562 C7.50742187 14.89892578 7.54609375 15.88183594 7.5859375 16.89453125 C7.6173584 17.80050049 7.6487793 18.70646973 7.68115234 19.63989258 C7.86027919 22.26525392 7.86027919 22.26525392 10 25 C12.30371421 26.17778312 12.30371421 26.17778312 15 26 C17.98127392 23.92200758 19.73913181 22.25283522 20.49584961 18.61865234 C20.71627534 15.79975125 20.7954106 13.0148456 20.8125 10.1875 C20.83763672 9.20845703 20.86277344 8.22941406 20.88867188 7.22070312 C20.94738663 4.81339803 20.9837798 2.40790438 21 0 C23.31 0 25.62 0 28 0 C28.08782542 3.52067351 28.14066643 7.04106144 28.1875 10.5625 C28.21263672 11.55314453 28.23777344 12.54378906 28.26367188 13.56445312 C28.32306681 19.52374502 27.91366234 23.75822974 25 29 C20.8876086 32.85536694 16.72218002 33.35197551 11.28515625 33.28125 C7.70407611 32.84050167 5.66960515 31.35179501 3 29 C0.3335355 25.29637931 -0.36579739 22.80137081 -0.29296875 18.26171875 C-0.28330078 17.19501953 -0.27363281 16.12832031 -0.26367188 15.02929688 C-0.23853516 13.92650391 -0.21339844 12.82371094 -0.1875 11.6875 C-0.17396484 10.56537109 -0.16042969 9.44324219 -0.14648438 8.28710938 C-0.1112138 5.52424771 -0.06192235 2.76237171 0 0 Z " fill="#00BCD4" transform="translate(253,45)"/>
<path d="M0 0 C6 0 6 0 7.59912109 1.28515625 C8.18040771 2.16494141 8.18040771 2.16494141 8.7734375 3.0625 C9.20527344 3.69414063 9.63710938 4.32578125 10.08203125 4.9765625 C10.50871094 5.64429687 10.93539063 6.31203125 11.375 7 C11.82488281 7.66773437 12.27476562 8.33546875 12.73828125 9.0234375 C13.84389783 10.6701005 14.92445352 12.33354063 16 14 C16.33 9.38 16.66 4.76 17 0 C18.98 0 20.96 0 23 0 C23 8.58 23 17.16 23 26 C21.02 26 19.04 26 17 26 C14.88943792 23.83593071 13.31235903 21.95202325 11.625 19.5 C11.17511719 18.87996094 10.72523438 18.25992188 10.26171875 17.62109375 C9.15696443 16.09324204 8.0760739 14.54818537 7 13 C6.67 17.29 6.34 21.58 6 26 C4.02 26 2.04 26 0 26 C0 17.42 0 8.84 0 0 Z " fill="#00BBD2" transform="translate(255,82)"/>
<path d="M0 0 C3.7013603 3.43697742 5.46414601 6.5957462 5.75390625 11.71484375 C5.52443874 15.8939338 4.96516656 17.99339366 2.375 21.375 C-1.88066121 24.56674591 -4.57415669 25.66248284 -9.875 25.25 C-13.66486895 24.69599922 -16.3981729 23.97655841 -19.375 21.4375 C-22.27050431 17.04432104 -22.93378366 13.65281417 -22.375 8.4375 C-20.77593249 4.27992447 -19.22811765 1.7252886 -15.375 -0.5625 C-9.99046376 -2.35734541 -5.17444314 -2.39557553 0 0 Z M-14.375 6.4375 C-16.72022935 9.32262978 -16.72022935 9.32262978 -16.25 12.9375 C-15.66605338 16.39952048 -15.66605338 16.39952048 -13.6875 18.375 C-10.5885552 19.7988395 -8.75317188 19.98903827 -5.375 19.4375 C-2.29166667 17.52083333 -2.29166667 17.52083333 -0.375 14.4375 C-0.375 10.86563335 -0.62907733 8.55638401 -2.625 5.5625 C-7.22036097 2.60833938 -10.12087892 3.21816513 -14.375 6.4375 Z " fill="#00B7CE" transform="translate(303.375,83.5625)"/>
<path d="M0 0 C3.56402385 1.88245936 5.51332987 3.50842937 6.93359375 7.23828125 C7.55875478 11.5946665 7.92132549 16.16894244 5.98828125 20.21875 C3.46616084 23.43088449 0.90990034 25.44301993 -3.06640625 26.23828125 C-7.95452218 26.29483796 -11.83799126 25.98044864 -16.06640625 23.42578125 C-19.81750825 19.32301344 -20.51706865 15.93013073 -20.3828125 10.48828125 C-19.74339421 5.94130676 -17.25475724 3.25686781 -13.87890625 0.36328125 C-9.26150247 -1.48368026 -4.71312566 -1.73735256 0 0 Z M-9.81640625 5.48828125 C-13.29363108 8.06088497 -13.29363108 8.06088497 -14.50390625 12.05078125 C-14.3041136 15.3973707 -14.3041136 15.3973707 -11.94140625 18.11328125 C-9.23511958 20.4391026 -9.23511958 20.4391026 -6.00390625 20.80078125 C-2.38203579 20.10723159 -1.2271542 19.19930622 0.93359375 16.23828125 C2.16375806 13.03985404 2.1366149 11.75180532 0.87109375 8.55078125 C-2.25849366 4.81546724 -5.24766258 3.41157958 -9.81640625 5.48828125 Z " fill="#00B7CD" transform="translate(349.06640625,82.76171875)"/>
<path d="M0 0 C1.65234375 1.09765625 1.65234375 1.09765625 4.08984375 3.09765625 C3.75984375 4.41765625 3.42984375 5.73765625 3.08984375 7.09765625 C1.40234375 7.78515625 1.40234375 7.78515625 -0.91015625 8.09765625 C-1.69390625 7.58203125 -2.47765625 7.06640625 -3.28515625 6.53515625 C-5.89209845 4.75186138 -5.89209845 4.75186138 -9.09765625 5.66015625 C-11.89776642 6.86506226 -11.89776642 6.86506226 -13.34765625 8.78515625 C-14.14474031 12.06205737 -13.54040692 14.82035278 -12.91015625 18.09765625 C-9.36735725 19.27858925 -6.62655764 19.36793999 -2.91015625 19.09765625 C-2.25015625 18.10765625 -1.59015625 17.11765625 -0.91015625 16.09765625 C-2.56015625 16.09765625 -4.21015625 16.09765625 -5.91015625 16.09765625 C-5.91015625 14.44765625 -5.91015625 12.79765625 -5.91015625 11.09765625 C-2.61015625 11.09765625 0.68984375 11.09765625 4.08984375 11.09765625 C4.197996 12.8671472 4.27550458 14.63853112 4.33984375 16.41015625 C4.38625 17.39628906 4.43265625 18.38242188 4.48046875 19.3984375 C4.08984375 22.09765625 4.08984375 22.09765625 2.26171875 23.890625 C-1.8853338 26.19537183 -5.22046139 26.41560166 -9.91015625 26.09765625 C-14.55661652 24.36662203 -17.34879283 22.36659529 -19.91015625 18.09765625 C-21.39758471 12.42683526 -21.14747214 8.90116404 -18.19921875 3.796875 C-14.139082 -1.55512344 -5.97600249 -2.82301958 0 0 Z " fill="#00B4CA" transform="translate(378.91015625,82.90234375)"/>
<path d="M0 0 C1.18613892 0.00785522 1.18613892 0.00785522 2.39624023 0.01586914 C3.67724609 0.02070312 3.67724609 0.02070312 4.98413086 0.02563477 C5.88196289 0.03401367 6.77979492 0.04239258 7.70483398 0.05102539 C8.6065332 0.05553711 9.50823242 0.06004883 10.43725586 0.06469727 C12.67234712 0.07652315 14.90730835 0.09300319 17.14233398 0.11352539 C17.14233398 2.09352539 17.14233398 4.07352539 17.14233398 6.11352539 C12.52233398 6.11352539 7.90233398 6.11352539 3.14233398 6.11352539 C3.14233398 7.43352539 3.14233398 8.75352539 3.14233398 10.11352539 C6.77233398 10.11352539 10.40233398 10.11352539 14.14233398 10.11352539 C14.14233398 12.09352539 14.14233398 14.07352539 14.14233398 16.11352539 C10.51233398 16.11352539 6.88233398 16.11352539 3.14233398 16.11352539 C3.14233398 17.76352539 3.14233398 19.41352539 3.14233398 21.11352539 C7.76233398 21.11352539 12.38233398 21.11352539 17.14233398 21.11352539 C17.14233398 22.76352539 17.14233398 24.41352539 17.14233398 26.11352539 C10.54233398 26.11352539 3.94233398 26.11352539 -2.85766602 26.11352539 C-2.88449052 21.96764957 -2.90441917 17.82194501 -2.92016602 13.67602539 C-2.92854492 12.49202148 -2.93692383 11.30801758 -2.94555664 10.08813477 C-2.9487793 8.96342773 -2.95200195 7.8387207 -2.95532227 6.67993164 C-2.96055908 5.63780518 -2.9657959 4.59567871 -2.97119141 3.52197266 C-2.81328241 0.17192487 -2.81328241 0.17192487 0 0 Z " fill="#00B8CF" transform="translate(400.857666015625,81.886474609375)"/>
<path d="M0 0 C6.27 0 12.54 0 19 0 C19 1.98 19 3.96 19 6 C14.71 6 10.42 6 6 6 C6 7.32 6 8.64 6 10 C9.3 10 12.6 10 16 10 C16 11.98 16 13.96 16 16 C12.7 16 9.4 16 6 16 C6 17.65 6 19.3 6 21 C10.62 21 15.24 21 20 21 C20 22.65 20 24.3 20 26 C13.4 26 6.8 26 0 26 C0 17.42 0 8.84 0 0 Z " fill="#00B7CF" transform="translate(181,82)"/>
<path d="M0 0 C1.65 0 3.3 0 5 0 C6.60725635 3.21451269 6.05748185 6.43612536 6 10 C8.97 10 11.94 10 15 10 C14.979375 8.535625 14.95875 7.07125 14.9375 5.5625 C14.91607993 4.04167482 14.92820036 2.51928038 15 1 C15.33 0.67 15.66 0.34 16 0 C17.65 0 19.3 0 21 0 C21 8.58 21 17.16 21 26 C19.02 26 17.04 26 15 26 C15 22.7 15 19.4 15 16 C12.03 16 9.06 16 6 16 C6 19.3 6 22.6 6 26 C4.02 26 2.04 26 0 26 C0 17.42 0 8.84 0 0 Z " fill="#00BBD1" transform="translate(229,82)"/>
<path d="M0 0 C1.640625 1.10546875 1.640625 1.10546875 4.078125 3.10546875 C3.748125 4.42546875 3.418125 5.74546875 3.078125 7.10546875 C1.390625 7.79296875 1.390625 7.79296875 -0.921875 8.10546875 C-1.705625 7.58984375 -2.489375 7.07421875 -3.296875 6.54296875 C-5.9038172 4.75967388 -5.9038172 4.75967388 -9.109375 5.66796875 C-11.93806894 6.86848485 -11.93806894 6.86848485 -13.359375 8.91796875 C-14.07947154 11.71834418 -13.83426894 13.36828694 -12.921875 16.10546875 C-11.90217182 18.04201823 -11.90217182 18.04201823 -9.921875 19.10546875 C-6.37987859 19.52220082 -6.37987859 19.52220082 -2.921875 19.10546875 C-2.261875 18.44546875 -1.601875 17.78546875 -0.921875 17.10546875 C1.703125 17.48046875 1.703125 17.48046875 4.078125 18.10546875 C3.953125 20.41796875 3.953125 20.41796875 3.078125 23.10546875 C-1.23232574 26.08173235 -4.75717604 26.65882935 -9.921875 26.10546875 C-14.57108383 24.37341056 -17.31909335 22.34703884 -19.921875 18.10546875 C-21.48369035 12.48293348 -20.70138705 9.18526663 -17.921875 4.10546875 C-13.50779865 -1.13624691 -6.42893918 -2.99233145 0 0 Z " fill="#00B3C9" transform="translate(221.921875,82.89453125)"/>
<path d="M0 0 C1.98 0 3.96 0 6 0 C6 8.58 6 17.16 6 26 C10.95 26 15.9 26 21 26 C21 28.31 21 30.62 21 33 C17.52085059 33.02887814 14.04173169 33.04675687 10.5625 33.0625 C9.07266602 33.07506836 9.07266602 33.07506836 7.55273438 33.08789062 C6.60849609 33.09111328 5.66425781 33.09433594 4.69140625 33.09765625 C3.81685791 33.10289307 2.94230957 33.10812988 2.04125977 33.11352539 C0 33 0 33 -1 32 C-1.1002093 29.72052208 -1.13081303 27.43792865 -1.1328125 25.15625 C-1.13376923 24.47195923 -1.13472595 23.78766846 -1.13571167 23.0826416 C-1.1363933 21.63338123 -1.13454023 20.18411782 -1.13037109 18.73486328 C-1.12502252 16.50937072 -1.1303166 14.28407999 -1.13671875 12.05859375 C-1.13605797 10.65364539 -1.1347768 9.24869715 -1.1328125 7.84375 C-1.13168457 6.55662109 -1.13055664 5.26949219 -1.12939453 3.94335938 C-1 1 -1 1 0 0 Z " fill="#00BCD6" transform="translate(193,45)"/>
<path d="M0 0 C2.5625 1.5 2.5625 1.5 4 3 C3.625 4.9375 3.625 4.9375 3 7 C1 8 1 8 -2.125 7.0625 C-3.07375 6.711875 -4.0225 6.36125 -5 6 C-5.66 6.66 -6.32 7.32 -7 8 C-6.30132812 8.32613281 -5.60265625 8.65226562 -4.8828125 8.98828125 C-3.97273438 9.42527344 -3.06265625 9.86226562 -2.125 10.3125 C-1.22007812 10.74175781 -0.31515625 11.17101562 0.6171875 11.61328125 C3 13 3 13 5 16 C4.67173786 22.12755998 4.67173786 22.12755998 2.71875 24.6640625 C-0.4249834 27.10760073 -4.1210311 27.1385346 -8 27 C-11.5625 25.5625 -11.5625 25.5625 -14 24 C-13.67 22.68 -13.34 21.36 -13 20 C-11.0625 19.4375 -11.0625 19.4375 -9 19 C-8.67 19.33 -8.34 19.66 -8 20 C-6.00041636 20.04080783 -3.99954746 20.04254356 -2 20 C-2 19.34 -2 18.68 -2 18 C-2.92232422 17.63648438 -2.92232422 17.63648438 -3.86328125 17.265625 C-7.26838778 15.8536191 -10.3070363 14.59105727 -13.125 12.1875 C-14.478995 8.8025125 -13.94486776 6.46451511 -13 3 C-9.83209023 -1.09188345 -4.75012462 -0.67983435 0 0 Z " fill="#00B4CA" transform="translate(433,82)"/>
<path d="M0 0 C6.6 0 13.2 0 20 0 C20 1.98 20 3.96 20 6 C17.69 6 15.38 6 13 6 C13 12.6 13 19.2 13 26 C11.02 26 9.04 26 7 26 C7 19.4 7 12.8 7 6 C4.69 6 2.38 6 0 6 C0 4.02 0 2.04 0 0 Z " fill="#00B7CE" transform="translate(159,82)"/>
<path d="M0 0 C1.98 0 3.96 0 6 0 C6 6.93 6 13.86 6 21 C9.96 21 13.92 21 18 21 C18 22.65 18 24.3 18 26 C12.06 26 6.12 26 0 26 C0 17.42 0 8.84 0 0 Z " fill="#00B4CB" transform="translate(312,82)"/>
<path d="M0 0 C1.65 0 3.3 0 5 0 C6.30475618 2.60951236 6.11301572 4.52701285 6.09765625 7.4453125 C6.09443359 8.52167969 6.09121094 9.59804687 6.08789062 10.70703125 C6.07951172 11.83496094 6.07113281 12.96289062 6.0625 14.125 C6.05798828 15.26066406 6.05347656 16.39632812 6.04882812 17.56640625 C6.03701615 20.37765638 6.02054507 23.1888023 6 26 C4.02 26 2.04 26 0 26 C0 17.42 0 8.84 0 0 Z " fill="#00BACD" transform="translate(388,82)"/>
<path d="M0 0 C-0.74443359 0.41958984 -0.74443359 0.41958984 -1.50390625 0.84765625 C-6.20005 3.61900484 -9.86879752 6.62433962 -13.5546875 10.64453125 C-15 12 -15 12 -17 12 C-15.57646476 8.66863403 -13.8664687 6.72335243 -11.125 4.375 C-10.44695313 3.78460938 -9.76890625 3.19421875 -9.0703125 2.5859375 C-3.96796339 -1.32265446 -3.96796339 -1.32265446 0 0 Z " fill="#00606B" transform="translate(69,40)"/>
</svg>
