<?xml version="1.0" encoding="utf-8"?>
<!-- Generator: Adobe Illustrator 25.2.0, SVG Export Plug-In . SVG Version: 6.00 Build 0)  -->
<svg version="1.1" id="Layer_1" xmlns="http://www.w3.org/2000/svg" xmlns:xlink="http://www.w3.org/1999/xlink" x="0px" y="0px"
	 viewBox="0 0 42 36" style="enable-background:new 0 0 42 36;" xml:space="preserve">
<style type="text/css">
	.st0{fill:url(#SVGID_1_);}
	.st1{fill:url(#SVGID_2_);}
</style>
<g>
	<linearGradient id="SVGID_1_" gradientUnits="userSpaceOnUse" x1="24.3185" y1="18.4528" x2="41.0711" y2="27.1589">
		<stop  offset="0" style="stop-color:#5F4796"/>
		<stop  offset="1" style="stop-color:#5EC4E5"/>
	</linearGradient>
	<path class="st0" d="M27.67,31.38l-8.98-14h7.13l4.39-7.05c0,0,1.02,2.45,1.17,3.82c0.55-0.11,1.11-0.17,1.69-0.17
		c4.79,0,8.68,3.88,8.68,8.68s-3.88,8.68-8.68,8.68L27.67,31.38z"/>
	<linearGradient id="SVGID_2_" gradientUnits="userSpaceOnUse" x1="4.226" y1="12.5538" x2="14.3978" y2="17.7879">
		<stop  offset="0.0382" style="stop-color:#5EC4E5"/>
		<stop  offset="0.9626" style="stop-color:#5F4796"/>
	</linearGradient>
	<path class="st1" d="M17.53,31.38l-8.98-14h7.13l7.73-12.4c0,0-1.74-0.36-2.67-0.36c-5.49,0-10.01,4.13-10.64,9.45
		c-0.39-0.05-0.78-0.08-1.19-0.08c-4.79,0-8.68,3.88-8.68,8.68c0,4.7,3.73,8.52,8.39,8.67l0,0.01L17.53,31.38z"/>
</g>
</svg>
