<?xml version="1.0" encoding="UTF-8"?>
<svg version="1.1" xmlns="http://www.w3.org/2000/svg" width="300" height="87">
<path d="M0 0 C0.09940302 6.10143362 0.17172047 12.20238847 0.21972656 18.30444336 C0.23975397 20.37711811 0.26698411 22.449737 0.30175781 24.5222168 C0.350668 27.51364996 0.37305793 30.50433155 0.390625 33.49609375 C0.41127014 34.41208847 0.43191528 35.32808319 0.45318604 36.27183533 C0.45564213 43.42761225 -1.02148879 49.78879261 -6 55.15625 C-6.66 55.5996875 -7.32 56.043125 -8 56.5 C-8.66 56.9640625 -9.32 57.428125 -10 57.90625 C-14.96481509 60.62138325 -20.47588158 60.49821954 -26 60 C-29.80587172 58.51993878 -32.83193068 56.55882522 -36 54 C-36.70576172 54.52400391 -36.70576172 54.52400391 -37.42578125 55.05859375 C-38.04839844 55.51363281 -38.67101562 55.96867187 -39.3125 56.4375 C-39.92738281 56.88996094 -40.54226562 57.34242187 -41.17578125 57.80859375 C-46.39329479 61.21617754 -53.37032446 60.67514443 -59.2890625 59.57421875 C-64.69436211 57.87332331 -67.89651867 54.66543082 -71 50 C-72.375 47.0625 -72.375 47.0625 -73 45 C-73.2475 45.515625 -73.495 46.03125 -73.75 46.5625 C-74.36875 47.7690625 -74.36875 47.7690625 -75 49 C-76.25769463 51.60849253 -76.25769463 51.60849253 -77.51171875 54.21875 C-80.31947113 57.57920954 -83.85065513 59.61517526 -88.12719727 60.38085938 C-90.41088718 60.53607873 -92.64931841 60.54634292 -94.9375 60.5 C-95.69740234 60.51546875 -96.45730469 60.5309375 -97.24023438 60.546875 C-102.90899835 60.50814732 -107.26232452 59.14343867 -112 56 C-116.18355097 51.60190796 -117.31541092 48.14849477 -117.21484375 42.05859375 C-116.75185577 37.62232715 -114.81800036 34.79589224 -111.6875 31.75 C-106.4676677 28.35103943 -101.24048341 27.65944109 -95.125 27.375 C-94.43664062 27.33632813 -93.74828125 27.29765625 -93.0390625 27.2578125 C-91.35976754 27.16451834 -89.67992233 27.08121762 -88 27 C-89.68807908 22.76915097 -89.68807908 22.76915097 -93 20 C-100.29121296 19.41670296 -105.65412935 21.76374668 -112 25 C-112.47069944 20.29300559 -112.85562871 16.38992621 -109.75 12.5625 C-104.19769162 7.3887581 -98.44930052 6.79841991 -91 7 C-85.70377802 8.09577006 -81.39376395 9.93606099 -78 14.25 C-76.36826198 16.88588449 -75.5558035 19.36001305 -74.875 22.375 C-74.58625 23.57125 -74.2975 24.7675 -74 26 C-73.01 26.33 -72.02 26.66 -71 27 C-71 23.7 -71 20.4 -71 17 C-64.57957245 16.51543943 -64.57957245 16.51543943 -62.33203125 18.39453125 C-60.28057224 22.40720913 -60.28112168 26.48747159 -60 30.9375 C-59.74138578 39.05380697 -59.74138578 39.05380697 -56 46 C-54.07470051 46.74601562 -54.07470051 46.74601562 -52 46.5625 C-50.9790625 46.56443359 -50.9790625 46.56443359 -49.9375 46.56640625 C-47.18318736 45.76121405 -46.49520492 44.40800403 -45 42 C-44.53409044 39.67541703 -44.53409044 39.67541703 -44.55859375 37.19140625 C-44.53216797 36.27939453 -44.50574219 35.36738281 -44.47851562 34.42773438 C-44.45821289 33.00944336 -44.45821289 33.00944336 -44.4375 31.5625 C-44.21936023 19.75871446 -44.21936023 19.75871446 -42 16 C-38.79619983 13.86413322 -37.98060033 13.76867825 -34.3125 13.875 C-33.10013672 13.90207031 -33.10013672 13.90207031 -31.86328125 13.9296875 C-30.94095703 13.96449219 -30.94095703 13.96449219 -30 14 C-29.98541748 14.82725586 -29.97083496 15.65451172 -29.95581055 16.50683594 C-29.8813414 20.25502881 -29.7846754 24.00232997 -29.6875 27.75 C-29.66494141 29.05195312 -29.64238281 30.35390625 -29.61914062 31.6953125 C-29.58369141 32.94570313 -29.54824219 34.19609375 -29.51171875 35.484375 C-29.48553467 36.63647461 -29.45935059 37.78857422 -29.43237305 38.97558594 C-28.96514031 42.24384069 -28.28670356 43.66024801 -26 46 C-24.06574514 46.62723208 -24.06574514 46.62723208 -22 46.5 C-21.319375 46.5103125 -20.63875 46.520625 -19.9375 46.53125 C-17.07104072 45.74528536 -16.46943693 44.57279196 -15 42 C-14.71067163 39.30223328 -14.58258013 36.82503389 -14.59375 34.12890625 C-14.57749573 32.98989113 -14.57749573 32.98989113 -14.56091309 31.8278656 C-14.52670559 29.40599012 -14.51107184 26.98458508 -14.5 24.5625 C-14.48540127 21.37585164 -14.45166335 18.19024809 -14.40625 15.00390625 C-14.40927124 14.27667862 -14.41229248 13.54945099 -14.41540527 12.80018616 C-14.35018792 8.36615328 -13.7394715 5.52223665 -11 2 C-7.27726579 -0.1129032 -4.20619818 -0.06381818 0 0 Z M-102 40 C-103.16977494 42.34872531 -103.16977494 42.34872531 -103 45 C-101.60720318 47.47722993 -101.60720318 47.47722993 -99 49 C-95.05983987 49.56288002 -92.94217804 49.60396028 -89.5625 47.4375 C-87.4751872 44.18129203 -87.7084577 41.79004984 -88 38 C-89.58294782 37.94562393 -91.16644256 37.90703729 -92.75 37.875 C-93.63171875 37.85179687 -94.5134375 37.82859375 -95.421875 37.8046875 C-98.15593833 38.01181351 -99.71937643 38.50013044 -102 40 Z " fill="#E10624" transform="translate(209,25)"/>
<path d="M0 0 C2.72353236 3.51423531 2.71717909 6.0935818 2.9375 10.5 C0.09660143 11.16844672 -2.25370671 11.49235173 -5.1875 11.375 C-7.99856404 11.27265717 -7.99856404 11.27265717 -9.875 12.5625 C-11.62478296 15.12986387 -11.62478296 15.12986387 -12.0625 21.5 C-5.1325 21.5 1.7975 21.5 8.9375 21.5 C8.9375 29.5 8.9375 29.5 6.95703125 31.984375 C3.00637964 33.96736701 -0.02979323 33.95192203 -4.375 33.75 C-5.11556641 33.73195312 -5.85613281 33.71390625 -6.61914062 33.6953125 C-8.4341571 33.64847337 -10.24850166 33.57673789 -12.0625 33.5 C-12.04678955 34.2206665 -12.0310791 34.94133301 -12.01489258 35.68383789 C-11.95219513 38.97664415 -11.91339905 42.26932438 -11.875 45.5625 C-11.84986328 46.69623047 -11.82472656 47.82996094 -11.79882812 48.99804688 C-11.74420203 55.24363074 -11.79975512 60.07730279 -15.0625 65.5 C-20.79938879 68.3684444 -26.86784287 67.63294614 -33.0625 66.5 C-33.87460938 66.09265625 -34.68671875 65.6853125 -35.5234375 65.265625 C-39.17342029 64.1650148 -40.7218218 65.79746159 -44.0625 67.5 C-47.02757 67.96618359 -49.94085988 67.96501506 -52.9375 67.9375 C-53.70191406 67.95748047 -54.46632812 67.97746094 -55.25390625 67.99804688 C-60.95287065 67.99320904 -65.30688891 66.68317445 -70.0625 63.5 C-74.56474755 58.65142571 -75.41298784 55.5107965 -75.34765625 49.04296875 C-74.83473009 44.46879167 -72.44780578 41.79295206 -69.1875 38.75 C-64.12700469 35.77323805 -58.95409553 35.14321375 -53.1875 34.875 C-52.49914062 34.83632813 -51.81078125 34.79765625 -51.1015625 34.7578125 C-49.42226754 34.66451834 -47.74242233 34.58121762 -46.0625 34.5 C-47.75057908 30.26915097 -47.75057908 30.26915097 -51.0625 27.5 C-57.76473134 26.91208497 -62.13932711 28.44010363 -68.0625 31.5 C-69.0525 31.995 -69.0525 31.995 -70.0625 32.5 C-70.54795147 27.64548525 -70.60314021 24.44176036 -68.125 20.125 C-64.00432146 15.98123642 -58.97842803 14.59706279 -53.24609375 14.40625 C-46.04630549 14.79807521 -41.71796352 16.54948497 -36.8125 22 C-33.9464414 26.09436943 -32.81628457 28.88646295 -32.6484375 33.921875 C-32.59042969 35.45908203 -32.59042969 35.45908203 -32.53125 37.02734375 C-32.5003125 38.09082031 -32.469375 39.15429688 -32.4375 40.25 C-32.37949219 41.86841797 -32.37949219 41.86841797 -32.3203125 43.51953125 C-32.22615369 46.17951775 -32.14052613 48.8394994 -32.0625 51.5 C-30.0825 52.16 -28.1025 52.82 -26.0625 53.5 C-26.08344727 52.29988281 -26.10439453 51.09976563 -26.12597656 49.86328125 C-26.19873187 45.38309807 -26.24442832 40.90296645 -26.28222656 36.42236328 C-26.30226141 34.48835448 -26.32949729 32.55440565 -26.36425781 30.62060547 C-26.41313571 27.83025257 -26.43555019 25.04070499 -26.453125 22.25 C-26.48409271 20.966698 -26.48409271 20.966698 -26.51568604 19.6574707 C-26.51806934 13.18694812 -25.13579762 7.73936371 -20.57940674 2.93676758 C-14.70989915 -2.17038676 -7.06809157 -3.4619224 0 0 Z M-61.0625 48.5 C-61.8125 51 -61.8125 51 -61.0625 53.5 C-58.70489439 56.23482251 -57.16181686 56.48758539 -53.5625 56.9375 C-50.07859285 56.75740198 -50.07859285 56.75740198 -47.625 54.9375 C-45.5376872 51.68129203 -45.7709577 49.29004984 -46.0625 45.5 C-54.18966005 44.81838432 -54.18966005 44.81838432 -61.0625 48.5 Z " fill="#E10624" transform="translate(287.0625,17.5)"/>
<path d="M0 0 C3.34625024 2.52676039 4.67977847 4.03933542 6 8 C6.10663762 9.90088546 6.15604396 11.80519094 6.17358398 13.70898438 C6.18707382 14.88029907 6.20056366 16.05161377 6.21446228 17.25842285 C6.22490067 18.52408081 6.23533905 19.78973877 6.24609375 21.09375 C6.27059419 23.07698601 6.29510586 25.06022196 6.32029057 27.0434494 C6.38108702 31.93919833 6.43181858 36.83503928 6.47680664 41.73095703 C6.502434 44.47815793 6.53323675 47.22521033 6.56959534 49.97229004 C6.60349598 52.5619577 6.62937386 55.15174484 6.64659119 57.74157715 C6.67155418 59.49854919 6.67155418 59.49854919 6.69702148 61.29101562 C6.70732895 62.32343384 6.71763641 63.35585205 6.72825623 64.41955566 C6.82305343 67.23779855 6.82305343 67.23779855 9 70 C11.19454681 70.57993699 11.19454681 70.57993699 13.625 70.6875 C14.44226563 70.75324219 15.25953125 70.81898437 16.1015625 70.88671875 C16.72804688 70.92410156 17.35453125 70.96148437 18 71 C18.60194175 78.22330097 18.60194175 78.22330097 16.0625 81.5 C11.20992766 83.87677012 6.88561743 83.9352001 1.74609375 82.26953125 C-2.67219207 80.27601371 -4.93011074 78.52984884 -7 74 C-7.29296875 70.44921875 -7.29296875 70.44921875 -7.1875 66.6875 C-7.14689453 64.80611328 -7.14689453 64.80611328 -7.10546875 62.88671875 C-7.07066406 61.93410156 -7.03585938 60.98148438 -7 60 C-8.65 60 -10.3 60 -12 60 C-11.95359375 60.6290625 -11.9071875 61.258125 -11.859375 61.90625 C-11.59360318 68.20883879 -12.27172881 72.80919156 -16 78 C-21.1464228 82.77882117 -24.77965043 83.23035581 -31.625 83.3125 C-32.79869141 83.35600586 -32.79869141 83.35600586 -33.99609375 83.40039062 C-41.37916692 83.47997599 -46.36939781 81.19216849 -52 76.5 C-54.86521574 72.71520488 -54.5157907 68.47117166 -54.46875 63.90234375 C-53.7054253 59.17609162 -51.89878687 56.68385957 -48.125 53.8125 C-41.56875254 50.35225829 -33.30347499 49.83709721 -26 50 C-26.33 48.02 -26.66 46.04 -27 44 C-34.95612153 41.45404111 -41.34555874 43.7891404 -48.5 47.1875 C-48.995 47.455625 -49.49 47.72375 -50 48 C-50.31440578 42.75990358 -49.93847184 39.40770776 -47 35 C-42.50744823 30.7378355 -37.93768102 30.20888489 -31.97265625 29.8984375 C-25.64920085 30.11448197 -20.50030116 32.49969884 -16 37 C-13.34929176 41.26006682 -12.49679042 45.03209582 -12 50 C-11.01 49.67 -10.02 49.34 -9 49 C-7.96248773 41.26049316 -7.78263367 33.61602522 -7.75 25.8125 C-7.729375 24.56791016 -7.70875 23.32332031 -7.6875 22.04101562 C-7.68234375 20.83767578 -7.6771875 19.63433594 -7.671875 18.39453125 C-7.6625293 17.31018799 -7.65318359 16.22584473 -7.64355469 15.10864258 C-8.06012035 11.47567643 -9.09785546 9.10978903 -11 6 C-11.99 5.34 -12.98 4.68 -14 4 C-13.67 3.01 -13.34 2.02 -13 1 C-8.65750666 -0.44749778 -4.53331044 -0.65794458 0 0 Z M-40 63 C-41.25695267 64.77713532 -41.25695267 64.77713532 -41 67 C-38.52486099 70.30018534 -37.06077239 71.82681267 -32.9375 72.5 C-29.58314463 71.92904589 -28.15845526 71.65656032 -26 69 C-25.66313169 66.24528656 -25.81680758 63.7936844 -26 61 C-27.58294782 60.94562393 -29.16644256 60.90703729 -30.75 60.875 C-31.63171875 60.85179687 -32.5134375 60.82859375 -33.421875 60.8046875 C-36.14655433 61.0111026 -37.70813107 61.54247437 -40 63 Z " fill="#E10624" transform="translate(58,2)"/>
</svg>
